<svg xmlns="http://www.w3.org/2000/svg" viewBox="0 0 456.6 66.2"><defs><style>.cls-1{fill:#ffffff;}</style></defs><title>Asset 1</title><g id="Layer_2" data-name="Layer 2"><g id="Layer_1-2" data-name="Layer 1"><path class="cls-1" d="M28.1,42a2.27,2.27,0,0,1-.9-1.8A2.22,2.22,0,0,1,29.4,38a2.59,2.59,0,0,1,1.4.4,11.33,11.33,0,0,0,7.5,2.7c2.9,0,4.7-1.4,4.7-3.4v-.1c0-1.9-1.1-2.9-6-4.1-5.7-1.4-8.9-3-8.9-8v-.1c0-4.6,3.8-7.7,9.1-7.7a14.72,14.72,0,0,1,8.5,2.5,2.24,2.24,0,0,1,1,1.9,2.22,2.22,0,0,1-2.2,2.2,2.38,2.38,0,0,1-1.2-.3,11.33,11.33,0,0,0-6.1-2c-2.7,0-4.3,1.4-4.3,3.2v.1c0,2.1,1.2,3,6.4,4.2,5.6,1.4,8.5,3.4,8.5,7.8v.1c0,5-3.9,8-9.5,8A16.28,16.28,0,0,1,28.1,42ZM50.8,27a2.3,2.3,0,1,1,4.6,0v1.3a8.13,8.13,0,0,1,6.9-3.8c4.7,0,9.3,3.7,9.3,10.4V35c0,6.7-4.6,10.4-9.3,10.4a8.5,8.5,0,0,1-6.9-3.5V49a2.3,2.3,0,1,1-4.6,0Zm16.1,8h0c0-4-2.6-6.5-5.8-6.5s-5.9,2.6-5.9,6.4V35c0,3.8,2.7,6.4,5.9,6.4S66.9,39,66.9,35Zm7.5-8A2.3,2.3,0,1,1,79,27v2.1c1.1-2.5,3-4.4,5.1-4.4A2.2,2.2,0,0,1,86.4,27a2.18,2.18,0,0,1-1.8,2.2c-3.3.6-5.5,3.1-5.5,7.8v5.9a2.3,2.3,0,1,1-4.6,0V27Zm13.8-7.5c0-1.4,1.1-2.2,2.6-2.2a2.33,2.33,0,0,1,2.6,2.2v.2a2.62,2.62,0,0,1-5.2,0Zm.3,7.5a2.3,2.3,0,1,1,4.6,0V42.9a2.3,2.3,0,0,1-4.6,0Zm8.8,0a2.3,2.3,0,0,1,4.6,0v1a7.28,7.28,0,0,1,6.3-3.5c4.5,0,7.2,3,7.2,7.7V42.9a2.3,2.3,0,0,1-4.6,0V33.6c0-3.1-1.6-4.9-4.3-4.9s-4.5,1.9-4.5,5v9.2a2.3,2.3,0,0,1-4.6,0V27Zm22.9,22.4a1.92,1.92,0,0,1-1.3-1.8,2,2,0,0,1,1.9-1.9,1.88,1.88,0,0,1,.8.2,12.41,12.41,0,0,0,6.2,1.6c4.1,0,6.4-2.1,6.4-6.2V39.7a8.44,8.44,0,0,1-7.1,3.7A9,9,0,0,1,118,34v-.1a9.07,9.07,0,0,1,9.1-9.4,8.64,8.64,0,0,1,7,3.4v-1a2.3,2.3,0,1,1,4.6,0v14c0,3.4-.9,5.9-2.6,7.6s-4.6,2.7-8.3,2.7A16.67,16.67,0,0,1,120.2,49.4Zm14-15.4h0a5.6,5.6,0,0,0-5.9-5.6,5.41,5.41,0,0,0-5.7,5.5V34a5.47,5.47,0,0,0,5.7,5.5A5.64,5.64,0,0,0,134.2,34Zm7.8-2.2h0a13.71,13.71,0,0,1,14-13.9,13.52,13.52,0,0,1,13.9,13.7v.1a13.68,13.68,0,0,1-14,13.8A13.52,13.52,0,0,1,142,31.8Zm23,0h0c0-5.3-3.8-9.6-9.1-9.6s-9,4.2-9,9.4v.1a9.08,9.08,0,0,0,9.1,9.4A9,9,0,0,0,165,31.8Zm8.1-4.8a2.3,2.3,0,1,1,4.6,0v1a7.28,7.28,0,0,1,6.3-3.5c4.5,0,7.2,3,7.2,7.7V42.9a2.3,2.3,0,1,1-4.6,0V33.6c0-3.1-1.6-4.9-4.3-4.9s-4.5,1.9-4.5,5v9.2a2.3,2.3,0,1,1-4.6,0V27Zm31,18.5a10,10,0,0,1-10.3-10.4V35c0-5.8,4.1-10.5,9.8-10.5,6.4,0,9.6,5.3,9.6,9.9a2.16,2.16,0,0,1-2.2,2.2H198.4a5.59,5.59,0,0,0,5.8,5.1,7.29,7.29,0,0,0,4.8-1.8,1.46,1.46,0,0,1,1.2-.4,1.82,1.82,0,0,1,1.8,1.9,2,2,0,0,1-.6,1.4A10.86,10.86,0,0,1,204.1,45.5Zm4.5-12c-.3-3-2.1-5.3-5.1-5.3-2.8,0-4.8,2.2-5.2,5.3Zm92.9,32.7H33.1A33.1,33.1,0,0,1,33.1,0H301.5a33.1,33.1,0,1,1,0,66.2ZM33.1,1.6a31.45,31.45,0,0,0,0,62.9H301.5a31.45,31.45,0,1,0,0-62.9Z"/><path class="cls-1" d="M389.7,27.8h-3.1v-3h3.1Zm0,16.8h-3.1V30h3.1Z"/><path class="cls-1" d="M407.4,30l-4.3,12.7A2.88,2.88,0,0,1,400,45a3,3,0,0,1-3.1-2.3l-3.6-10.5h-1.4V30h3.7l3.7,11.8c.2.5.3.8.7.8s.6-.3.7-.8L404.4,30Z"/><path class="cls-1" d="M414.9,30c4,0,6.7,2.6,6.7,6.4v2.3a6.33,6.33,0,0,1-6.7,6.4c-4,0-6.7-2.6-6.7-6.4V36.4c0-3.8,2.8-6.4,6.7-6.4m0,12.6a3.7,3.7,0,0,0,3.8-3.9V36.4a3.76,3.76,0,0,0-3.8-3.9,3.64,3.64,0,0,0-3.8,3.9v2.3a3.7,3.7,0,0,0,3.8,3.9"/><path class="cls-1" d="M446.1,30.4a25.41,25.41,0,0,0-5.7-.7c-4,0-6.5,2.5-6.5,6.6v1.6c0,4.1,2.5,6.7,6.5,6.7h1.1V42.1h-1.1c-2.2,0-3.7-1.7-3.7-4.2V36.3c0-2.5,1.5-4.2,3.7-4.2a22.33,22.33,0,0,1,3,.2h.2V44.5h3.1V30.9c-.1-.2-.1-.3-.6-.5"/><rect class="cls-1" x="449.6" y="24.8" width="3.1" height="19.8"/><path class="cls-1" d="M376,24.8h-5.4V44.6h3.2v-17h3c2.8.1,4.1,1.1,4.1,3.3v.2c0,2-1.1,3.3-4.1,3.3h-.9v2.7h.9c4.3,0,7.4-1.7,7.4-6v-.3c0-4.3-3.4-6-8.2-6"/><path class="cls-1" d="M427.1,26.8V30h5v2.4h-5v8.5c0,1.3.9,1.4,2.1,1.4h2.9v2.4h-3.9c-2.9,0-4.2-1.2-4.2-3.8V27.2Z"/><path class="cls-1" d="M454,43.3a1.3,1.3,0,1,1,1.3,1.3A1.26,1.26,0,0,1,454,43.3Zm1.3-1.1a1.1,1.1,0,1,0,1.1,1.1A1.11,1.11,0,0,0,455.3,42.2ZM455,44h-.1V42.6h.4c.4,0,.5.2.5.4s-.1.3-.3.4l.4.6h-.2l-.3-.5h-.3V44Zm.3-.6c.2,0,.4-.1.4-.3s-.1-.3-.4-.3h-.2v.6Z"/><path class="cls-1" d="M349.5,44.6V34.5h1.1v3.9a3.13,3.13,0,0,1,2.5-1.3c1.9,0,3.3,1.5,3.3,3.8s-1.3,3.8-3.3,3.8a3.13,3.13,0,0,1-2.5-1.3v1.1h-1.1Zm3.4-.8c1.5,0,2.3-1.2,2.3-2.8s-.9-2.8-2.3-2.8a2.61,2.61,0,0,0-2.2,1.2v3.3A2.79,2.79,0,0,0,352.9,43.8Z"/><path class="cls-1" d="M358,46.5a1.27,1.27,0,0,0,.6.1c.5,0,.8-.2,1.1-.8l.5-1.1-3.1-7.4h1.2l2.4,6,2.4-6h1.2l-3.7,8.8a2.13,2.13,0,0,1-2.2,1.5,2.2,2.2,0,0,1-.8-.1Z"/><path class="cls-1" d="M234.8,26.8h-5.9a1.1,1.1,0,1,1,0-2.2h14.2a1.1,1.1,0,0,1,0,2.2h-5.9V44.1a1.2,1.2,0,0,1-2.4,0V26.8Z"/><path class="cls-1" d="M245.7,34.9h0a10.45,10.45,0,1,1,20.9-.1v.1a10.39,10.39,0,0,1-10.5,10.6C249.8,45.5,245.7,40.6,245.7,34.9Zm18.5,0h0c0-4.7-3.4-8.5-8.1-8.5s-8,3.7-8,8.4v.1a8.14,8.14,0,0,0,8.1,8.4C260.9,43.3,264.2,39.6,264.2,34.9Z"/><path class="cls-1" d="M270.8,36.5V25.7a1.2,1.2,0,0,1,1.1-1.2,1.22,1.22,0,0,1,1.2,1.2V36.4c0,4.4,2.4,6.9,6.3,6.9s6.2-2.3,6.2-6.7V25.7a1.22,1.22,0,0,1,1.2-1.2,1.13,1.13,0,0,1,1.1,1.2V36.4c0,6-3.4,9.1-8.5,9.1S270.8,42.3,270.8,36.5Z"/><path class="cls-1" d="M293,25.8a1.2,1.2,0,0,1,1.1-1.2h7.7a8.45,8.45,0,0,1,5.8,2,5.58,5.58,0,0,1,1.6,4v.1c0,3.4-2.3,5.3-5.5,5.9l5.1,6.5c.2.3.4.5.4.8A1.2,1.2,0,0,1,308,45a1.52,1.52,0,0,1-1.1-.6l-5.8-7.5h-5.9v6.9A1.22,1.22,0,0,1,294,45a1.13,1.13,0,0,1-1.1-1.2v-18Zm8.6,9.3c3.1,0,5.3-1.6,5.3-4.2v-.1c0-2.5-1.9-4-5.2-4h-6.3v8.3Z"/></g></g></svg>
